<mxfile host="drawio-plugin" modified="2022-09-08T21:00:36.327Z" agent="5.0 (X11; Linux x86_64) AppleWebKit/537.36 (KHTML, like Gecko) Chrome/98.0.4758.102 Safari/537.36" etag="WRssxKnCu-ZqTBUvxupI" version="15.5.4" type="embed"><diagram id="xk0LYboaFIT9QmwzVqD-" name="Page-1"><mxGraphModel dx="1745" dy="1113" grid="0" gridSize="10" guides="1" tooltips="1" connect="1" arrows="1" fold="1" page="0" pageScale="1" pageWidth="827" pageHeight="1169" background="#282A36" math="0" shadow="0"><root><mxCell id="0"/><mxCell id="1" parent="0"/><mxCell id="69" value="" style="rounded=0;whiteSpace=wrap;html=1;strokeColor=none;strokeWidth=3;fillColor=#FF79C6;fontSize=13;fontColor=#F8F8F2;align=right;" parent="1" vertex="1"><mxGeometry x="-394" y="-136.5" width="20" height="20" as="geometry"/></mxCell><mxCell id="70" value="Model" style="text;html=1;resizable=0;points=[];autosize=1;align=left;verticalAlign=middle;spacingTop=-4;fontSize=13;fontColor=#F8F8F2;" parent="1" vertex="1"><mxGeometry x="-372" y="-134.5" width="45" height="16" as="geometry"/></mxCell><mxCell id="71" value="" style="rounded=0;whiteSpace=wrap;html=1;strokeColor=none;strokeWidth=3;fillColor=#BD93F9;fontSize=13;fontColor=#F8F8F2;align=right;" parent="1" vertex="1"><mxGeometry x="-394" y="-107.5" width="20" height="20" as="geometry"/></mxCell><mxCell id="72" value="Abstraction" style="text;html=1;resizable=0;points=[];autosize=1;align=left;verticalAlign=middle;spacingTop=-4;fontSize=13;fontColor=#F8F8F2;" parent="1" vertex="1"><mxGeometry x="-372" y="-105.5" width="75" height="16" as="geometry"/></mxCell><mxCell id="73" value="" style="rounded=0;whiteSpace=wrap;html=1;strokeColor=none;strokeWidth=3;fillColor=#8BE9FD;fontSize=13;fontColor=#F8F8F2;align=right;" parent="1" vertex="1"><mxGeometry x="-394" y="-76.5" width="20" height="20" as="geometry"/></mxCell><mxCell id="74" value="Implementation" style="text;html=1;resizable=0;points=[];autosize=1;align=left;verticalAlign=middle;spacingTop=-4;fontSize=13;fontColor=#F8F8F2;" parent="1" vertex="1"><mxGeometry x="-372" y="-74.5" width="99" height="16" as="geometry"/></mxCell><mxCell id="75" value="" style="rounded=0;whiteSpace=wrap;html=1;strokeColor=none;strokeWidth=3;fillColor=#50FA7B;fontSize=13;fontColor=#F8F8F2;align=right;" parent="1" vertex="1"><mxGeometry x="-394" y="-165.5" width="20" height="20" as="geometry"/></mxCell><mxCell id="76" value="Layer" style="text;html=1;resizable=0;points=[];autosize=1;align=left;verticalAlign=middle;spacingTop=-4;fontSize=13;fontColor=#F8F8F2;" parent="1" vertex="1"><mxGeometry x="-372" y="-163.5" width="43" height="16" as="geometry"/></mxCell><mxCell id="113" value="" style="rounded=0;whiteSpace=wrap;html=1;strokeColor=none;strokeWidth=3;fillColor=#FF5555;fontSize=13;fontColor=#F8F8F2;align=right;" parent="1" vertex="1"><mxGeometry x="-394" y="-45.5" width="20" height="20" as="geometry"/></mxCell><mxCell id="114" value="External Lib" style="text;html=1;resizable=0;points=[];autosize=1;align=left;verticalAlign=middle;spacingTop=-4;fontSize=13;fontColor=#F8F8F2;" parent="1" vertex="1"><mxGeometry x="-372" y="-43.5" width="79" height="16" as="geometry"/></mxCell><mxCell id="153" style="edgeStyle=orthogonalEdgeStyle;rounded=0;orthogonalLoop=1;jettySize=auto;html=1;exitX=0;exitY=0.5;exitDx=0;exitDy=0;entryX=1;entryY=0.5;entryDx=0;entryDy=0;fontSize=13;fontColor=#F8F8F2;strokeWidth=2;strokeColor=#BD93F9;" parent="1" edge="1"><mxGeometry relative="1" as="geometry"><mxPoint x="-102" y="213" as="targetPoint"/></mxGeometry></mxCell><mxCell id="154" style="edgeStyle=orthogonalEdgeStyle;rounded=0;orthogonalLoop=1;jettySize=auto;html=1;exitX=1;exitY=0.5;exitDx=0;exitDy=0;entryX=0;entryY=0.5;entryDx=0;entryDy=0;strokeColor=#BD93F9;strokeWidth=2;fontSize=13;fontColor=#F8F8F2;" parent="1" edge="1"><mxGeometry relative="1" as="geometry"><mxPoint x="94" y="213" as="sourcePoint"/></mxGeometry></mxCell><mxCell id="211" value="CarroCombustao" style="swimlane;fontStyle=1;align=center;verticalAlign=top;childLayout=stackLayout;horizontal=1;startSize=26;horizontalStack=0;resizeParent=1;resizeParentMax=0;resizeLast=0;collapsible=1;marginBottom=0;strokeColor=#8BE9FD;fillColor=#8BE9FD;" parent="1" vertex="1"><mxGeometry x="-223.5" y="251" width="201" height="88" as="geometry"/></mxCell><mxCell id="213" value="" style="line;strokeWidth=1;fillColor=none;align=left;verticalAlign=middle;spacingTop=-1;spacingLeft=3;spacingRight=3;rotatable=0;labelPosition=right;points=[];portConstraint=eastwest;strokeColor=#FFFFFF;" parent="211" vertex="1"><mxGeometry y="26" width="201" height="10" as="geometry"/></mxCell><mxCell id="242" value="+ abrirPorta(): void&#10;&#10;" style="text;strokeColor=none;fillColor=none;align=left;verticalAlign=top;spacingLeft=4;spacingRight=4;overflow=hidden;rotatable=0;points=[[0,0.5],[1,0.5]];portConstraint=eastwest;fontColor=#FFFFFF;" parent="211" vertex="1"><mxGeometry y="36" width="201" height="26" as="geometry"/></mxCell><mxCell id="241" value="+ abastecerCombustivel(): void" style="text;strokeColor=none;fillColor=none;align=left;verticalAlign=top;spacingLeft=4;spacingRight=4;overflow=hidden;rotatable=0;points=[[0,0.5],[1,0.5]];portConstraint=eastwest;fontColor=#FFFFFF;" parent="211" vertex="1"><mxGeometry y="62" width="201" height="26" as="geometry"/></mxCell><mxCell id="219" value="CarroEletrico" style="swimlane;fontStyle=1;align=center;verticalAlign=top;childLayout=stackLayout;horizontal=1;startSize=26;horizontalStack=0;resizeParent=1;resizeParentMax=0;resizeLast=0;collapsible=1;marginBottom=0;strokeColor=#8BE9FD;fillColor=#8BE9FD;" parent="1" vertex="1"><mxGeometry x="-445" y="241" width="160" height="92" as="geometry"/></mxCell><mxCell id="221" value="" style="line;strokeWidth=1;fillColor=none;align=left;verticalAlign=middle;spacingTop=-1;spacingLeft=3;spacingRight=3;rotatable=0;labelPosition=right;points=[];portConstraint=eastwest;" parent="219" vertex="1"><mxGeometry y="26" width="160" height="8" as="geometry"/></mxCell><mxCell id="246" value="&lt;font color=&quot;#ffffff&quot;&gt;+ recarregarBateria(): void&lt;/font&gt;" style="text;html=1;direction=south;" parent="219" vertex="1"><mxGeometry y="34" width="160" height="32" as="geometry"/></mxCell><mxCell id="247" value="+ abrirPorta(): void&#10;&#10;" style="text;strokeColor=none;fillColor=none;align=left;verticalAlign=top;spacingLeft=4;spacingRight=4;overflow=hidden;rotatable=0;points=[[0,0.5],[1,0.5]];portConstraint=eastwest;fontColor=#FFFFFF;" parent="219" vertex="1"><mxGeometry y="66" width="160" height="26" as="geometry"/></mxCell><mxCell id="244" value="&lt;p style=&quot;margin: 0px ; margin-top: 4px ; text-align: center&quot;&gt;&lt;i&gt;&amp;lt;&amp;lt;Interface&amp;gt;&amp;gt;&lt;/i&gt;&lt;/p&gt;&lt;p style=&quot;margin: 0px ; margin-top: 4px ; text-align: center&quot;&gt;&lt;i&gt;&lt;b&gt;Carro&lt;/b&gt;&lt;/i&gt;&lt;br&gt;&lt;/p&gt;&lt;p style=&quot;margin: 0px ; margin-left: 4px&quot;&gt;&lt;/p&gt;&lt;p style=&quot;margin: 0px ; margin-left: 4px&quot;&gt;+ abrirPorta(): void&lt;/p&gt;" style="verticalAlign=top;align=left;overflow=fill;fontSize=12;fontFamily=Helvetica;html=1;fillColor=#BD93F9;" parent="1" vertex="1"><mxGeometry x="-332.5" y="-11" width="190" height="64" as="geometry"/></mxCell><mxCell id="245" value="Use" style="endArrow=open;endSize=12;dashed=1;html=1;entryX=0.5;entryY=0;entryDx=0;entryDy=0;strokeColor=#8BE9FD;exitX=0.458;exitY=1;exitDx=0;exitDy=0;exitPerimeter=0;" parent="1" source="250" target="219" edge="1"><mxGeometry width="160" relative="1" as="geometry"><mxPoint x="-392" y="179" as="sourcePoint"/><mxPoint x="-314" y="344" as="targetPoint"/></mxGeometry></mxCell><mxCell id="249" value="Use" style="endArrow=open;endSize=12;dashed=1;html=1;strokeColor=#8BE9FD;entryX=0.5;entryY=0;entryDx=0;entryDy=0;exitX=0.5;exitY=1;exitDx=0;exitDy=0;" parent="1" source="251" target="211" edge="1"><mxGeometry width="160" relative="1" as="geometry"><mxPoint x="-84" y="168" as="sourcePoint"/><mxPoint x="-314" y="334" as="targetPoint"/></mxGeometry></mxCell><mxCell id="250" value="&lt;p style=&quot;margin: 0px ; margin-top: 4px ; text-align: center&quot;&gt;&lt;i&gt;&amp;lt;&amp;lt;Interface&amp;gt;&amp;gt;&lt;/i&gt;&lt;/p&gt;&lt;p style=&quot;margin: 0px ; margin-top: 4px ; text-align: center&quot;&gt;&lt;i&gt;&lt;b&gt;Eletrico&lt;/b&gt;&lt;/i&gt;&lt;br&gt;&lt;/p&gt;&lt;p style=&quot;margin: 0px ; margin-left: 4px&quot;&gt;&lt;/p&gt;&lt;p style=&quot;margin: 0px ; margin-left: 4px&quot;&gt;+ recarregarBateria(): void&lt;/p&gt;" style="verticalAlign=top;align=left;overflow=fill;fontSize=12;fontFamily=Helvetica;html=1;fillColor=#BD93F9;" parent="1" vertex="1"><mxGeometry x="-451" y="129" width="190" height="64" as="geometry"/></mxCell><mxCell id="251" value="&lt;p style=&quot;margin: 0px ; margin-top: 4px ; text-align: center&quot;&gt;&lt;i&gt;&amp;lt;&amp;lt;Interface&amp;gt;&amp;gt;&lt;/i&gt;&lt;/p&gt;&lt;p style=&quot;margin: 0px ; margin-top: 4px ; text-align: center&quot;&gt;&lt;b&gt;&lt;i&gt;Combustivel&lt;/i&gt;&lt;/b&gt;&lt;/p&gt;&lt;p style=&quot;margin: 0px ; margin-left: 4px&quot;&gt;&lt;/p&gt;&lt;p style=&quot;margin: 0px ; margin-left: 4px&quot;&gt;+ abastecerCombustivel(): void&lt;/p&gt;" style="verticalAlign=top;align=left;overflow=fill;fontSize=12;fontFamily=Helvetica;html=1;fillColor=#BD93F9;" parent="1" vertex="1"><mxGeometry x="-218" y="129" width="190" height="64" as="geometry"/></mxCell><mxCell id="254" value="Extends" style="endArrow=block;endSize=16;endFill=0;html=1;exitX=0.5;exitY=1;exitDx=0;exitDy=0;entryX=0.5;entryY=0;entryDx=0;entryDy=0;strokeColor=#BD93F9;" parent="1" source="244" target="250" edge="1"><mxGeometry width="160" relative="1" as="geometry"><mxPoint x="-487" y="399" as="sourcePoint"/><mxPoint x="-327" y="399" as="targetPoint"/></mxGeometry></mxCell><mxCell id="255" value="Extends" style="endArrow=block;endSize=16;endFill=0;html=1;strokeColor=#BD93F9;exitX=0.5;exitY=1;exitDx=0;exitDy=0;entryX=0.5;entryY=0;entryDx=0;entryDy=0;" parent="1" source="244" target="251" edge="1"><mxGeometry width="160" relative="1" as="geometry"><mxPoint x="-487" y="399" as="sourcePoint"/><mxPoint x="-327" y="399" as="targetPoint"/></mxGeometry></mxCell></root></mxGraphModel></diagram></mxfile>